<mxfile host="app.diagrams.net" modified="2024-04-11T09:28:10.168Z" agent="Mozilla/5.0 (Windows NT 10.0; Win64; x64) AppleWebKit/537.36 (KHTML, like Gecko) Chrome/123.0.0.0 Safari/537.36" etag="YKTX0CfC9idLUrtjRsT3" version="24.2.3" type="google">
  <diagram name="Page-1" id="7i0HS5fh59K__IMDZCdu">
    <mxGraphModel grid="1" page="1" gridSize="10" guides="1" tooltips="1" connect="1" arrows="1" fold="1" pageScale="1" pageWidth="827" pageHeight="1169" math="0" shadow="0">
      <root>
        <mxCell id="0" />
        <mxCell id="1" parent="0" />
        <mxCell id="bnqMVER4PhRWbPe9dfjj-3" value="Key" style="rounded=1;whiteSpace=wrap;html=1;labelPosition=center;verticalLabelPosition=middle;align=center;verticalAlign=top;fontSize=18;strokeWidth=2;" vertex="1" parent="1">
          <mxGeometry x="40" y="160" width="570" height="120" as="geometry" />
        </mxCell>
        <mxCell id="bnqMVER4PhRWbPe9dfjj-6" value="sub system" style="rounded=1;whiteSpace=wrap;html=1;fillColor=#e1d5e7;strokeColor=#9673a6;fontSize=18;strokeWidth=2;labelBackgroundColor=none;" vertex="1" parent="1">
          <mxGeometry x="170" y="200" width="120" height="60" as="geometry" />
        </mxCell>
        <mxCell id="9pvQp-PHx0DXusqns0Dc-2" value="WEB Hosting Setup eg DNS" style="rounded=1;whiteSpace=wrap;html=1;fillColor=#e1d5e7;strokeColor=#9673a6;fontSize=18;strokeWidth=2;labelBackgroundColor=none;" vertex="1" parent="1">
          <mxGeometry x="150" y="350" width="120" height="60" as="geometry" />
        </mxCell>
        <mxCell id="9pvQp-PHx0DXusqns0Dc-3" value="Web site" style="rounded=1;whiteSpace=wrap;html=1;fillColor=#e1d5e7;strokeColor=#9673a6;fontSize=18;strokeWidth=2;labelBackgroundColor=none;" vertex="1" parent="1">
          <mxGeometry x="360" y="350" width="120" height="60" as="geometry" />
        </mxCell>
        <mxCell id="9pvQp-PHx0DXusqns0Dc-17" style="edgeStyle=orthogonalEdgeStyle;rounded=0;orthogonalLoop=1;jettySize=auto;html=1;entryX=0;entryY=0.5;entryDx=0;entryDy=0;startArrow=classic;startFill=1;exitX=1;exitY=0.5;exitDx=0;exitDy=0;strokeWidth=2;fontSize=18;" edge="1" parent="1" source="9pvQp-PHx0DXusqns0Dc-2" target="9pvQp-PHx0DXusqns0Dc-3">
          <mxGeometry relative="1" as="geometry" />
        </mxCell>
        <mxCell id="9pvQp-PHx0DXusqns0Dc-22" style="edgeStyle=orthogonalEdgeStyle;rounded=0;orthogonalLoop=1;jettySize=auto;html=1;flowAnimation=0;strokeWidth=2;fontSize=18;startArrow=classic;startFill=1;" edge="1" parent="1" source="9pvQp-PHx0DXusqns0Dc-6" target="9pvQp-PHx0DXusqns0Dc-2">
          <mxGeometry relative="1" as="geometry" />
        </mxCell>
        <mxCell id="9pvQp-PHx0DXusqns0Dc-6" value="Internet" style="shape=image;html=1;verticalAlign=top;verticalLabelPosition=bottom;labelBackgroundColor=#ffffff;imageAspect=0;aspect=fixed;image=https://cdn2.iconfinder.com/data/icons/whcompare-isometric-web-hosting-servers/50/connected-globe-128.png;strokeWidth=2;fontSize=18;" vertex="1" parent="1">
          <mxGeometry x="30" y="355" width="50" height="50" as="geometry" />
        </mxCell>
        <mxCell id="9pvQp-PHx0DXusqns0Dc-7" value="publicly&amp;nbsp;&lt;div style=&quot;font-size: 18px;&quot;&gt;accessible&amp;nbsp;&lt;/div&gt;" style="shape=image;html=1;verticalAlign=top;verticalLabelPosition=bottom;labelBackgroundColor=none;imageAspect=0;aspect=fixed;image=https://cdn2.iconfinder.com/data/icons/whcompare-isometric-web-hosting-servers/50/connected-globe-128.png;fontSize=18;strokeWidth=2;" vertex="1" parent="1">
          <mxGeometry x="75" y="175" width="50" height="50" as="geometry" />
        </mxCell>
        <mxCell id="9pvQp-PHx0DXusqns0Dc-16" style="edgeStyle=orthogonalEdgeStyle;rounded=0;orthogonalLoop=1;jettySize=auto;html=1;flowAnimation=0;startArrow=classic;startFill=1;strokeWidth=2;fontSize=18;entryX=0;entryY=0.5;entryDx=0;entryDy=0;exitX=1;exitY=0.25;exitDx=0;exitDy=0;" edge="1" parent="1" source="9pvQp-PHx0DXusqns0Dc-11" target="2WUx9MOC4d0oVSZbUGe5-1">
          <mxGeometry relative="1" as="geometry">
            <mxPoint x="790" y="380" as="targetPoint" />
          </mxGeometry>
        </mxCell>
        <mxCell id="9pvQp-PHx0DXusqns0Dc-11" value="Authentication and Authorisation" style="rounded=1;whiteSpace=wrap;html=1;fillColor=#e1d5e7;strokeColor=#9673a6;fontSize=18;strokeWidth=2;labelBackgroundColor=none;" vertex="1" parent="1">
          <mxGeometry x="570" y="350" width="120" height="60" as="geometry" />
        </mxCell>
        <mxCell id="9pvQp-PHx0DXusqns0Dc-19" style="edgeStyle=orthogonalEdgeStyle;rounded=0;orthogonalLoop=1;jettySize=auto;html=1;startArrow=classic;startFill=1;strokeWidth=2;fontSize=18;exitX=1;exitY=0.5;exitDx=0;exitDy=0;" edge="1" parent="1" source="9pvQp-PHx0DXusqns0Dc-3" target="9pvQp-PHx0DXusqns0Dc-11">
          <mxGeometry relative="1" as="geometry">
            <mxPoint x="440" y="380" as="sourcePoint" />
            <mxPoint x="334" y="390" as="targetPoint" />
          </mxGeometry>
        </mxCell>
        <mxCell id="9pvQp-PHx0DXusqns0Dc-24" value="3rd Party&lt;div&gt;System&lt;/div&gt;" style="rounded=1;whiteSpace=wrap;html=1;fillColor=#fff2cc;strokeColor=#d6b656;strokeWidth=2;fontSize=18;" vertex="1" parent="1">
          <mxGeometry x="470" y="200" width="120" height="60" as="geometry" />
        </mxCell>
        <mxCell id="9pvQp-PHx0DXusqns0Dc-25" value="Payment Providers eg Paypal" style="rounded=1;whiteSpace=wrap;html=1;fillColor=#fff2cc;strokeColor=#d6b656;strokeWidth=2;fontSize=18;" vertex="1" parent="1">
          <mxGeometry x="360" y="510" width="120" height="60" as="geometry" />
        </mxCell>
        <mxCell id="9pvQp-PHx0DXusqns0Dc-26" style="edgeStyle=orthogonalEdgeStyle;rounded=0;orthogonalLoop=1;jettySize=auto;html=1;startArrow=classic;startFill=1;strokeWidth=2;fontSize=18;exitX=0.5;exitY=1;exitDx=0;exitDy=0;entryX=0.5;entryY=0;entryDx=0;entryDy=0;" edge="1" parent="1" source="9pvQp-PHx0DXusqns0Dc-3" target="9pvQp-PHx0DXusqns0Dc-25">
          <mxGeometry relative="1" as="geometry">
            <mxPoint x="480" y="390" as="sourcePoint" />
            <mxPoint x="580" y="390" as="targetPoint" />
          </mxGeometry>
        </mxCell>
        <mxCell id="2WUx9MOC4d0oVSZbUGe5-1" value="Listing&lt;div style=&quot;font-size: 18px;&quot;&gt;Processing&lt;/div&gt;" style="rounded=1;whiteSpace=wrap;html=1;fillColor=#e1d5e7;strokeColor=#9673a6;fontSize=18;strokeWidth=2;labelBackgroundColor=none;opacity=50;" vertex="1" parent="1">
          <mxGeometry x="810" y="290" width="120" height="60" as="geometry" />
        </mxCell>
        <UserObject label="Purchase&lt;div style=&quot;font-size: 18px;&quot;&gt;Processing&lt;/div&gt;" link="https://judewoodprofessional.atlassian.net/wiki/x/JoAY" id="2WUx9MOC4d0oVSZbUGe5-2">
          <mxCell style="rounded=1;whiteSpace=wrap;html=1;fillColor=#e1d5e7;strokeColor=#9673a6;fontSize=18;strokeWidth=2;labelBackgroundColor=none;opacity=40;" vertex="1" parent="1">
            <mxGeometry x="810" y="410" width="120" height="60" as="geometry" />
          </mxCell>
        </UserObject>
        <mxCell id="2WUx9MOC4d0oVSZbUGe5-3" style="edgeStyle=orthogonalEdgeStyle;rounded=0;orthogonalLoop=1;jettySize=auto;html=1;flowAnimation=0;startArrow=classic;startFill=1;strokeWidth=2;fontSize=18;entryX=0;entryY=0.5;entryDx=0;entryDy=0;exitX=1;exitY=0.75;exitDx=0;exitDy=0;" edge="1" parent="1" source="9pvQp-PHx0DXusqns0Dc-11" target="2WUx9MOC4d0oVSZbUGe5-2">
          <mxGeometry relative="1" as="geometry">
            <mxPoint x="700" y="390" as="sourcePoint" />
            <mxPoint x="820" y="290" as="targetPoint" />
            <Array as="points">
              <mxPoint x="750" y="395" />
              <mxPoint x="750" y="440" />
            </Array>
          </mxGeometry>
        </mxCell>
        <UserObject label="Parent" link="https://judewoodprofessional.atlassian.net/wiki/x/AYAY" id="2WUx9MOC4d0oVSZbUGe5-4">
          <mxCell style="image;aspect=fixed;html=1;points=[];align=center;fontSize=20;image=img/lib/azure2/general/Launch_Portal.svg;labelBackgroundColor=none;imageBackground=default;strokeWidth=2;" vertex="1" parent="1">
            <mxGeometry x="862" y="35.5" width="68" height="67" as="geometry" />
          </mxCell>
        </UserObject>
        <mxCell id="vMZFVyRB2T3h5us6ykHj-1" value="connecting diagram" style="rounded=1;whiteSpace=wrap;html=1;fillColor=#e1d5e7;strokeColor=#9673a6;fontSize=18;strokeWidth=2;labelBackgroundColor=none;fillStyle=auto;opacity=50;" vertex="1" parent="1">
          <mxGeometry x="320" y="200" width="120" height="60" as="geometry" />
        </mxCell>
        <mxCell id="_ZTmXkIQNZgXP8D17r53-1" value="Description&lt;div&gt;&lt;br&gt;&lt;div&gt;&lt;div&gt;The User Interface allows authenticated and authorised users of our website to interact with our systems business processes and view information about their account&lt;/div&gt;&lt;/div&gt;&lt;/div&gt;" style="rounded=1;whiteSpace=wrap;html=1;labelPosition=center;verticalLabelPosition=middle;align=center;verticalAlign=top;fontSize=18;labelBackgroundColor=none;strokeWidth=2;" vertex="1" parent="1">
          <mxGeometry x="40" y="18" width="720" height="102" as="geometry" />
        </mxCell>
        <mxCell id="_ZTmXkIQNZgXP8D17r53-2" value="&lt;div style=&quot;font-size: 18px;&quot;&gt;Data &amp;amp;&lt;/div&gt;Reporting" style="rounded=1;whiteSpace=wrap;html=1;fillColor=#e1d5e7;strokeColor=#9673a6;fontSize=18;strokeWidth=2;labelBackgroundColor=none;opacity=50;" vertex="1" parent="1">
          <mxGeometry x="40" y="560" width="120" height="60" as="geometry" />
        </mxCell>
        <mxCell id="_ZTmXkIQNZgXP8D17r53-3" value="Account&amp;nbsp;&lt;div&gt;Dashboards&lt;/div&gt;" style="edgeStyle=orthogonalEdgeStyle;rounded=0;orthogonalLoop=1;jettySize=auto;html=1;entryX=0;entryY=0.75;entryDx=0;entryDy=0;strokeWidth=2;labelBackgroundColor=none;fontSize=18;" edge="1" parent="1" source="_ZTmXkIQNZgXP8D17r53-2" target="9pvQp-PHx0DXusqns0Dc-3">
          <mxGeometry x="-0.5949" y="20" relative="1" as="geometry">
            <Array as="points">
              <mxPoint x="320" y="590" />
              <mxPoint x="320" y="395" />
            </Array>
            <mxPoint as="offset" />
          </mxGeometry>
        </mxCell>
      </root>
    </mxGraphModel>
  </diagram>
</mxfile>
